<svg xmlns="http://www.w3.org/2000/svg" xmlns:xlink="http://www.w3.org/1999/xlink" viewBox="0 0 64 64"><defs><linearGradient id="linear-gradient" x1="32" y1="57.02" x2="32" y2="19" gradientUnits="userSpaceOnUse"><stop offset="0" stop-color="#54a5ff"/><stop offset="1" stop-color="#8ad3fe"/></linearGradient><linearGradient id="linear-gradient-2" x1="11" y1="34.5" x2="32" y2="34.5" gradientUnits="userSpaceOnUse"><stop offset="0" stop-color="#d3e6f5"/><stop offset="1" stop-color="#f0f7fc"/></linearGradient><linearGradient id="linear-gradient-3" x1="32" x2="53" xlink:href="#linear-gradient-2"/><linearGradient id="linear-gradient-4" x1="43" y1="40" x2="43" y2="7" gradientUnits="userSpaceOnUse"><stop offset="0" stop-color="#fe9661"/><stop offset="1" stop-color="#ffb369"/></linearGradient><style>.cls-4{fill:#b4cde1}</style></defs><g id="Homework"><path d="M53 19h2a2 2 0 0 1 2 2v31a2 2 0 0 1-2 2H38.8a3.36 3.36 0 0 0-2.8 1.5c-1.2 1.82-3 1.5-5.2 1.5-3.07 0-2.53-3-5.6-3H9a2 2 0 0 1-2-2V21a2 2 0 0 1 2-2h2" style="fill:url(#linear-gradient)"/><path d="M32 19v34a6.75 6.75 0 0 0-5.61-3H13a2 2 0 0 1-2-2V18a2 2 0 0 1 2-2h13.39A6.75 6.75 0 0 1 32 19z" style="fill:url(#linear-gradient-2)"/><path d="M46 16h5a2 2 0 0 1 2 2v30a2 2 0 0 1-2 2H37.61A6.75 6.75 0 0 0 32 53V19c2.17-3.25 5.17-3 8-3" style="fill:url(#linear-gradient-3)"/><path class="cls-4" d="M27 44h-1v-5a1 1 0 0 0-2 0v5h-2v-6a1 1 0 0 0-2 0v6h-2v-3a1 1 0 0 0-2 0v3h-1a1 1 0 0 0 0 2h12a1 1 0 0 0 0-2zM27 23h-9a1 1 0 0 1 0-2h9a1 1 0 0 1 0 2zM27 28H16a1 1 0 0 1 0-2h11a1 1 0 0 1 0 2zM25 33h-9a1 1 0 0 1 0-2h9a1 1 0 0 1 0 2z"/><path d="m46 35-3 5-3-5V9a2 2 0 0 1 2-2h2a2 2 0 0 1 2 2z" style="fill:url(#linear-gradient-4)"/><path class="cls-4" d="M46 35a5 5 0 0 0-6 0l3 5z"/><path style="fill:#eb7f58" d="M40 14h6v4h-6z"/></g></svg>
